<?xml version="1.0" encoding="UTF-8"?>
<!DOCTYPE svg PUBLIC "-//W3C//DTD SVG 1.1//EN" "http://www.w3.org/Graphics/SVG/1.1/DTD/svg11.dtd">
<!-- Creator: CorelDRAW 2019 (64-Bit) -->
<svg xmlns="http://www.w3.org/2000/svg" xml:space="preserve" width="283px" height="283px" version="1.1" style="shape-rendering:geometricPrecision; text-rendering:geometricPrecision; image-rendering:optimizeQuality; fill-rule:evenodd; clip-rule:evenodd"
viewBox="0 0 1834 1834"
 xmlns:xlink="http://www.w3.org/1999/xlink"
 xmlns:xodm="http://www.corel.com/coreldraw/odm/2003">
 <defs>
  <style type="text/css">
   <![CDATA[
    .fil1 {fill:none}
    .fil0 {fill:#41F6D7}
   ]]>
  </style>
 </defs>
 <g id="Слой_x0020_1">
  <metadata id="CorelCorpID_0Corel-Layer"/>
  <path class="fil0" d="M1108 540l-191 191 -191 -191c-21,-21 -55,-21 -76,0 -21,21 -21,55 0,76l213 214c30,29 78,29 108,0l213 -214c21,-21 21,-55 0,-76 -21,-21 -55,-21 -76,0zm0 458l-191 191 -191 -191c-21,-21 -55,-21 -76,0 -21,21 -21,55 0,77l213 213c30,30 78,30 108,0l213 -213c21,-22 21,-56 0,-77 -21,-21 -55,-21 -76,0z"/>
  <rect class="fil1" width="1834" height="1834"/>
 </g>
</svg>
