<?xml version="1.0" encoding="UTF-8"?>
<!DOCTYPE svg PUBLIC "-//W3C//DTD SVG 1.1//EN" "http://www.w3.org/Graphics/SVG/1.1/DTD/svg11.dtd">
<!-- Creator: CorelDRAW 2019 (64-Bit) -->
<svg xmlns="http://www.w3.org/2000/svg" xml:space="preserve" width="97px" height="51px" version="1.1" style="shape-rendering:geometricPrecision; text-rendering:geometricPrecision; image-rendering:optimizeQuality; fill-rule:evenodd; clip-rule:evenodd"
viewBox="0 0 907 481"
 xmlns:xlink="http://www.w3.org/1999/xlink"
 xmlns:xodm="http://www.corel.com/coreldraw/odm/2003">
 <defs>
  <style type="text/css">
   <![CDATA[
    .fil0 {fill:#6B7B84}
    .fil1 {fill:#80949F;fill-rule:nonzero}
   ]]>
  </style>
 </defs>
 <g id="Слой_x0020_1">
  <metadata id="CorelCorpID_0Corel-Layer"/>
  <g id="_2034132464656">
   <path class="fil0" d="M236 416c-96,0 -173,-80 -173,-178 0,-3 -2,-4 -4,-4l-51 0c-3,0 -4,1 -4,4 0,127 95,232 218,239l395 0c5,0 9,-4 9,-9l0 -43c0,-5 -4,-9 -9,-9l-381 0zm-124 -182c0,40 14,71 45,99 28,25 60,36 102,36 26,0 47,-5 68,-15l1 -2 0 -73 -8 10c-15,17 -35,26 -58,26 -43,0 -86,-28 -86,-81 0,-39 30,-82 85,-82 10,0 37,3 59,27l8 9 0 -72 -1 -2c-22,-11 -43,-16 -68,-16 -43,0 -76,11 -102,34 -17,15 -45,47 -45,102zm652 -105c-20,-20 -46,-31 -76,-31 -61,0 -88,40 -88,78 0,21 8,38 22,51 14,11 30,17 45,22l2 1c13,4 27,9 36,16 6,6 8,12 8,19 0,18 -14,30 -34,30 -17,0 -38,-8 -50,-31l-3 -6 -41 38 3 4c13,18 42,49 92,49 56,0 95,-36 95,-87 0,-29 -13,-47 -24,-56 -13,-12 -32,-19 -53,-26 -16,-5 -24,-8 -30,-13 -4,-4 -6,-8 -6,-14 0,-11 8,-24 30,-24 16,0 28,7 38,19l4 6 33 -42 -3 -3zm-88 -67c95,0 169,73 169,167 0,2 2,5 5,5l49 0c2,0 4,-3 4,-5 0,-126 -101,-225 -227,-225l-338 0c-6,0 -10,4 -10,9l0 40c0,5 4,9 10,9l338 0zm-233 97l13 0c12,0 25,1 35,8 3,2 7,5 10,11 2,4 3,9 3,15 0,11 -4,21 -12,27 -11,8 -23,7 -32,7l-16 0 0 0 -1 0 0 -68zm29 117c30,0 54,-9 70,-25 20,-20 23,-48 23,-62 0,-16 -4,-46 -28,-68 -21,-18 -42,-23 -73,-23l-82 0 0 271 62 0 0 -93 28 0z"/>
   <path class="fil1" d="M236 419c-49,0 -93,-20 -125,-53 -32,-33 -52,-78 -52,-128 0,-1 0,-1 0,-1 0,0 0,0 0,0l-51 0c-1,0 -1,0 -1,0 0,0 0,0 0,1 0,62 24,120 62,162 39,42 93,70 153,73l395 1c1,0 3,-1 4,-2 1,-1 1,-3 1,-4l0 -43c0,-1 0,-3 -1,-4 -1,-1 -3,-2 -4,-2l-381 0zm-120 -58c31,32 73,51 120,51l381 0c3,0 6,2 9,4 2,2 4,6 4,9l0 43c0,3 -2,7 -4,9 -3,2 -6,4 -9,4l-395 -1c-63,-3 -118,-32 -158,-75 -40,-44 -64,-103 -64,-167 0,-2 1,-4 2,-6 2,-1 4,-2 6,-2l51 0c2,0 4,1 5,2 2,2 3,4 3,6 0,48 18,92 49,123zm-1 -127c0,19 4,37 11,53 7,15 18,30 33,43 14,12 29,21 45,27 16,6 34,8 55,8 13,0 24,-1 35,-3 11,-3 21,-6 31,-11l0 -61 -2 2c-8,8 -17,15 -28,20 -10,4 -21,7 -33,7 -24,0 -47,-9 -65,-25 -14,-14 -24,-34 -24,-60 0,-22 9,-45 26,-61 14,-15 35,-24 62,-24 5,0 15,0 26,4 11,4 24,11 36,23l2 2 0 -61c-10,-5 -21,-9 -32,-11 -11,-3 -22,-4 -34,-4 -21,0 -40,3 -56,8 -17,6 -31,14 -44,25 -10,8 -23,23 -33,44 -6,15 -11,33 -11,55zm5 56c-8,-17 -12,-36 -12,-56 0,-23 5,-42 12,-58 10,-22 24,-37 34,-46 14,-12 29,-21 47,-27 17,-5 36,-8 58,-8 12,0 24,1 36,4 11,2 22,7 33,12l1 0 3 3 0 84 -14 -17c-11,-12 -23,-18 -33,-21 -10,-4 -19,-4 -24,-4 -25,0 -44,8 -58,22 -15,15 -23,36 -23,56 0,24 9,42 22,55 16,15 38,22 60,22 11,0 21,-2 31,-6 9,-4 17,-10 25,-18l14 -18 0 85 -3 3 -1 0c-10,5 -21,9 -33,12 -11,2 -23,3 -36,3 -21,0 -40,-2 -57,-9 -18,-6 -33,-15 -48,-28 -15,-14 -27,-29 -34,-45zm642 -159c-10,-9 -21,-17 -34,-22 -12,-5 -26,-7 -40,-7 -27,0 -47,8 -61,20 -16,14 -23,34 -23,54 0,10 2,19 5,27 4,8 9,15 16,21 6,5 13,9 20,13 8,4 15,6 23,9l2 0c7,3 14,5 20,8 7,3 13,6 17,10l0 0c3,3 6,6 7,10 2,3 3,7 3,11 0,10 -4,19 -11,25 -7,5 -16,9 -27,9 -10,0 -21,-3 -32,-9 -8,-6 -16,-13 -21,-24l-1 -2 -35 33 1 1c7,10 20,25 39,35 14,7 30,12 50,12 27,0 50,-8 66,-23 16,-15 25,-35 25,-60 0,-12 -2,-22 -5,-30 -5,-11 -11,-18 -17,-23 -6,-6 -14,-11 -23,-15 -9,-4 -19,-7 -30,-11l0 0c-15,-5 -24,-8 -30,-14 -3,-2 -4,-4 -6,-7 -1,-2 -2,-5 -2,-9 0,-7 3,-15 10,-20 6,-5 13,-7 24,-7 9,0 16,1 23,5 7,3 13,8 18,15l1 2 28 -36 0 -1zm-31 -28c13,5 25,13 36,23l5 6 -38 47 -6 -8c-5,-6 -10,-11 -16,-14 -6,-3 -12,-4 -20,-4 -9,0 -15,2 -20,5 -4,4 -7,10 -7,15 0,3 1,4 2,6 0,2 2,3 4,5l0 0c5,5 13,8 28,13 11,3 21,7 30,11 9,4 18,9 25,15 6,6 13,14 18,26 4,9 6,20 6,33 0,27 -10,49 -27,65 -17,16 -42,25 -71,25 -21,0 -38,-5 -53,-13 -20,-11 -34,-26 -42,-37l-4 -6 46 -43 5 10c5,9 12,16 19,21 9,5 19,7 28,7 9,0 17,-2 22,-7 6,-4 9,-11 9,-19 0,-3 -1,-6 -2,-9 -1,-2 -3,-5 -6,-7 -3,-3 -9,-6 -15,-9 -6,-2 -13,-5 -19,-7l-2 0c-8,-3 -16,-6 -24,-10 -7,-3 -15,-8 -22,-14 -8,-6 -13,-14 -17,-23 -4,-9 -6,-19 -6,-30 0,-21 8,-44 26,-59 15,-14 36,-22 65,-22 15,0 30,2 43,8zm-55 -45c48,0 91,19 122,50 31,30 50,73 50,121 0,0 0,0 1,1 0,0 0,0 1,0l49 0c0,0 0,0 0,0 1,-1 1,-1 1,-1 0,-62 -25,-117 -65,-157 -41,-40 -97,-65 -159,-65l-338 0c-2,0 -3,1 -4,2 -2,1 -2,2 -2,4l0 40c0,1 0,3 2,4 1,1 2,1 4,1l338 0zm118 55c-30,-30 -71,-47 -118,-47l-338 0c-4,0 -7,-2 -9,-4 -3,-3 -4,-6 -4,-9l0 -40c0,-4 1,-7 4,-9 2,-3 5,-4 9,-4l338 0c64,0 122,25 164,67 41,41 67,98 67,162 0,2 -1,4 -3,6 -1,1 -3,2 -5,2l-49 0c-3,0 -5,-1 -6,-2 -2,-2 -3,-4 -3,-6 0,-46 -18,-87 -47,-116zm-351 43l13 0c6,0 12,0 19,1 6,1 13,3 18,7l0 0c2,1 4,3 6,5 2,2 4,5 5,7 1,3 2,6 3,9 1,2 1,5 1,8 0,6 -1,12 -4,17 -2,5 -6,10 -10,13l0 0c-11,8 -23,8 -33,8l-21 0 0 -1 0 0 0 -74 3 0zm13 7l-9 0 0 60 0 0 0 1 14 0c9,0 20,0 29,-7 3,-2 6,-6 8,-10 2,-4 3,-9 3,-14 0,-2 0,-5 -1,-7 0,-2 -1,-4 -2,-6l0 0c-1,-3 -3,-4 -4,-6 -2,-2 -4,-3 -5,-4 -5,-4 -10,-5 -15,-6 -6,-1 -12,-1 -18,-1zm16 109c14,0 27,-2 39,-6 11,-4 21,-10 28,-18 8,-7 13,-17 17,-25 5,-13 6,-26 6,-34 0,-9 -2,-23 -8,-38 -4,-9 -10,-19 -20,-28 -9,-8 -20,-14 -31,-17 -11,-3 -24,-4 -39,-4l-78 0 0 263 55 0 0 -93 31 0zm41 1c-12,4 -26,6 -41,6l-24 0 0 93 -69 0 0 -277 85 0c16,0 29,1 41,4 12,4 23,10 34,19 10,9 17,20 22,31 6,15 8,30 8,40 0,8 -1,22 -7,36 -3,10 -9,20 -18,28 -8,9 -19,16 -31,20z"/>
  </g>
 </g>
</svg>
