<?xml version="1.0" encoding="UTF-8"?>
<!DOCTYPE svg PUBLIC "-//W3C//DTD SVG 1.1//EN" "http://www.w3.org/Graphics/SVG/1.1/DTD/svg11.dtd">
<!-- Creator: CorelDRAW 2019 (64-Bit) -->
<svg xmlns="http://www.w3.org/2000/svg" xml:space="preserve" width="40px" height="40px" version="1.1" style="shape-rendering:geometricPrecision; text-rendering:geometricPrecision; image-rendering:optimizeQuality; fill-rule:evenodd; clip-rule:evenodd"
viewBox="0 0 120 120"
 xmlns:xlink="http://www.w3.org/1999/xlink"
 xmlns:xodm="http://www.corel.com/coreldraw/odm/2003">
 <defs>
  <style type="text/css">
   <![CDATA[
    .fil1 {fill:white}
    .fil0 {fill:#FF3E79;fill-rule:nonzero}
   ]]>
  </style>
 </defs>
 <g id="Слой_x0020_1">
  <metadata id="CorelCorpID_0Corel-Layer"/>
  <path class="fil0" d="M60 0l0 0c34,0 60,26 60,60l0 0c0,34 -26,60 -60,60l0 0c-34,0 -60,-26 -60,-60l0 0c0,-34 26,-60 60,-60z"/>
  <path class="fil1" d="M36 33c0,-2 1,-3 3,-3l42 0c2,0 3,1 3,3l0 52c-3,0 -5,2 -5,5l-3 0c0,-3 -2,-5 -4,-5 -3,0 -5,2 -5,5l-3 0c0,-3 -2,-5 -4,-5 -3,0 -5,2 -5,5l-3 0c0,-3 -2,-5 -4,-5 -3,0 -5,2 -5,5l-3 0c0,-3 -2,-5 -4,-5l0 -52zm28 32c-2,2 -6,3 -9,2 -5,-1 -10,-5 -10,-11 -2,-9 6,-16 15,-14 5,0 9,5 10,10 1,4 0,7 -2,9l7 7c1,1 1,2 0,4 -2,1 -3,1 -4,0l-7 -7zm-14 -11c0,-4 3,-7 7,-7 4,0 7,3 7,7 0,4 -3,7 -7,7 -4,0 -7,-3 -7,-7z"/>
 </g>
</svg>
