<?xml version="1.0" encoding="UTF-8"?>
<!DOCTYPE svg PUBLIC "-//W3C//DTD SVG 1.1//EN" "http://www.w3.org/Graphics/SVG/1.1/DTD/svg11.dtd">
<!-- Creator: CorelDRAW 2019 (64-Bit) -->
<svg xmlns="http://www.w3.org/2000/svg" xml:space="preserve" width="40px" height="40px" version="1.1" style="shape-rendering:geometricPrecision; text-rendering:geometricPrecision; image-rendering:optimizeQuality; fill-rule:evenodd; clip-rule:evenodd"
viewBox="0 0 133 133"
 xmlns:xlink="http://www.w3.org/1999/xlink"
 xmlns:xodm="http://www.corel.com/coreldraw/odm/2003">
 <defs>
  <style type="text/css">
   <![CDATA[
    .fil3 {fill:none}
    .fil1 {fill:white}
    .fil0 {fill:#FF3E79;fill-rule:nonzero}
    .fil2 {fill:white;fill-opacity:0.000000}
   ]]>
  </style>
    <clipPath id="id0">
     <path d="M93 37l-53 0c-4,0 -7,3 -7,6l0 60 14 -16 46 0c4,0 7,-3 7,-7l0 -37c0,-3 -3,-6 -7,-6zm-23 36l-20 0c-2,0 -3,-1 -3,-3 0,-2 1,-3 3,-3l20 0c2,0 3,1 3,3 0,2 -1,3 -3,3zm13 -16l-33 0c-2,0 -3,-2 -3,-4 0,-2 1,-3 3,-3l33 0c2,0 4,1 4,3 0,2 -2,4 -4,4z"/>
    </clipPath>
    <clipPath id="id1">
     <path d="M93 37l-53 0c-4,0 -7,3 -7,6l0 60 14 -16 46 0c4,0 7,-3 7,-7l0 -37c0,-3 -3,-6 -7,-6zm-23 36l-20 0c-2,0 -3,-1 -3,-3 0,-2 1,-3 3,-3l20 0c2,0 3,1 3,3 0,2 -1,3 -3,3zm13 -16l-33 0c-2,0 -3,-2 -3,-4 0,-2 1,-3 3,-3l33 0c2,0 4,1 4,3 0,2 -2,4 -4,4z"/>
    </clipPath>
 </defs>
 <g id="Слой_x0020_1">
  <metadata id="CorelCorpID_0Corel-Layer"/>
  <g id="_2637221961088">
   <path class="fil0" d="M67 0l0 0c36,0 66,30 66,67l0 0c0,36 -30,66 -66,66l0 0c-37,0 -67,-30 -67,-66l0 0c0,-37 30,-67 67,-67z"/>
   <path class="fil1" d="M93 37l-53 0c-4,0 -7,3 -7,6l0 60 14 -16 46 0c4,0 7,-3 7,-7l0 -37c0,-3 -3,-6 -7,-6zm-23 36l-20 0c-2,0 -3,-1 -3,-3 0,-2 1,-3 3,-3l20 0c2,0 3,1 3,3 0,2 -1,3 -3,3zm13 -16l-33 0c-2,0 -3,-2 -3,-4 0,-2 1,-3 3,-3l33 0c2,0 4,1 4,3 0,2 -2,4 -4,4z"/>
   <g style="clip-path:url(#id0)">
    <polygon class="fil2" points="33,37 100,37 100,103 33,103 "/>
   </g>
   <g style="clip-path:url(#id1)">
    <g>
    </g>
   </g>
   <path class="fil3" d="M93 37l-53 0c-4,0 -7,3 -7,6l0 60 14 -16 46 0c4,0 7,-3 7,-7l0 -37c0,-3 -3,-6 -7,-6zm-23 36l-20 0c-2,0 -3,-1 -3,-3 0,-2 1,-3 3,-3l20 0c2,0 3,1 3,3 0,2 -1,3 -3,3zm13 -16l-33 0c-2,0 -3,-2 -3,-4 0,-2 1,-3 3,-3l33 0c2,0 4,1 4,3 0,2 -2,4 -4,4z"/>
  </g>
 </g>
</svg>
