<?xml version="1.0" encoding="UTF-8"?>
<!DOCTYPE svg PUBLIC "-//W3C//DTD SVG 1.1//EN" "http://www.w3.org/Graphics/SVG/1.1/DTD/svg11.dtd">
<!-- Creator: CorelDRAW 2019 (64-Bit) -->
<svg xmlns="http://www.w3.org/2000/svg" xml:space="preserve" width="40px" height="40px" version="1.1" style="shape-rendering:geometricPrecision; text-rendering:geometricPrecision; image-rendering:optimizeQuality; fill-rule:evenodd; clip-rule:evenodd"
viewBox="0 0 398 398"
 xmlns:xlink="http://www.w3.org/1999/xlink"
 xmlns:xodm="http://www.corel.com/coreldraw/odm/2003">
 <defs>
  <style type="text/css">
   <![CDATA[
    .fil1 {fill:white}
    .fil0 {fill:#FF3E79;fill-rule:nonzero}
   ]]>
  </style>
 </defs>
 <g id="Слой_x0020_1">
  <metadata id="CorelCorpID_0Corel-Layer"/>
  <g id="_2639161169024">
   <path class="fil0" d="M199 0l0 0c110,0 199,89 199,199l0 0c0,110 -89,199 -199,199l0 0c-110,0 -199,-89 -199,-199l0 0c0,-110 89,-199 199,-199z"/>
   <path class="fil1" d="M127 231l25 -3c6,0 12,2 17,6l18 18c28,-14 51,-37 65,-65l-18 -19c-4,-4 -6,-10 -6,-16l3 -25c1,-10 10,-18 20,-18l17 0c11,0 21,10 20,21 -5,85 -73,153 -158,158 -11,1 -21,-9 -21,-20l0 -17c0,-10 8,-19 18,-20z"/>
  </g>
 </g>
</svg>
