<?xml version="1.0" encoding="UTF-8"?>
<!DOCTYPE svg PUBLIC "-//W3C//DTD SVG 1.1//EN" "http://www.w3.org/Graphics/SVG/1.1/DTD/svg11.dtd">
<!-- Creator: CorelDRAW 2019 (64-Bit) -->
<svg xmlns="http://www.w3.org/2000/svg" xml:space="preserve" width="40px" height="40px" version="1.1" style="shape-rendering:geometricPrecision; text-rendering:geometricPrecision; image-rendering:optimizeQuality; fill-rule:evenodd; clip-rule:evenodd"
viewBox="0 0 141 141"
 xmlns:xlink="http://www.w3.org/1999/xlink"
 xmlns:xodm="http://www.corel.com/coreldraw/odm/2003">
 <defs>
  <style type="text/css">
   <![CDATA[
    .fil1 {fill:white}
    .fil0 {fill:#FF3E79;fill-rule:nonzero}
   ]]>
  </style>
 </defs>
 <g id="Слой_x0020_1">
  <metadata id="CorelCorpID_0Corel-Layer"/>
  <path class="fil0" d="M71 0l0 0c39,0 70,31 70,71l0 0c0,39 -31,70 -70,70l0 0c-40,0 -71,-31 -71,-70l0 0c0,-40 31,-71 71,-71z"/>
  <path class="fil1" d="M39 46c0,-2 1,-4 3,-4l56 0c2,0 4,2 4,4 0,2 -2,3 -4,3l-56 0c-2,0 -3,-1 -3,-3zm0 24c0,-2 1,-3 3,-3l28 0c2,0 4,1 4,3 0,2 -2,4 -4,4l-28 0c-2,0 -3,-2 -3,-4zm3 21c-2,0 -3,2 -3,4 0,2 1,3 3,3l42 0c2,0 4,-1 4,-3 0,-2 -2,-4 -4,-4l-42 0z"/>
 </g>
</svg>
