<?xml version="1.0" encoding="UTF-8"?>
<!DOCTYPE svg PUBLIC "-//W3C//DTD SVG 1.1//EN" "http://www.w3.org/Graphics/SVG/1.1/DTD/svg11.dtd">
<!-- Creator: CorelDRAW 2019 (64-Bit) -->
<svg xmlns="http://www.w3.org/2000/svg" xml:space="preserve" width="40px" height="40px" version="1.1" style="shape-rendering:geometricPrecision; text-rendering:geometricPrecision; image-rendering:optimizeQuality; fill-rule:evenodd; clip-rule:evenodd"
viewBox="0 0 147 147"
 xmlns:xlink="http://www.w3.org/1999/xlink"
 xmlns:xodm="http://www.corel.com/coreldraw/odm/2003">
 <defs>
  <style type="text/css">
   <![CDATA[
    .fil0 {fill:#FF3E79;fill-rule:nonzero}
    .fil1 {fill:white;fill-rule:nonzero}
   ]]>
  </style>
 </defs>
 <g id="Слой_x0020_1">
  <metadata id="CorelCorpID_0Corel-Layer"/>
  <g id="_2639148892624">
   <path class="fil0" d="M74 0l0 0c40,0 73,33 73,74l0 0c0,40 -33,73 -73,73l0 0c-41,0 -74,-33 -74,-73l0 0c0,-41 33,-74 74,-74z"/>
   <path class="fil1" d="M75 70c10,0 17,-7 17,-17 0,-9 -7,-16 -17,-16 -9,0 -16,7 -16,16 0,10 7,17 16,17z"/>
   <path class="fil1" d="M37 98c-1,3 2,5 5,5l63 0c4,0 6,-2 5,-5 -2,-16 -18,-24 -36,-24 -19,0 -34,8 -37,24z"/>
  </g>
 </g>
</svg>
