<?xml version="1.0" encoding="UTF-8"?>
<!DOCTYPE svg PUBLIC "-//W3C//DTD SVG 1.1//EN" "http://www.w3.org/Graphics/SVG/1.1/DTD/svg11.dtd">
<!-- Creator: CorelDRAW 2019 (64-Bit) -->
<svg xmlns="http://www.w3.org/2000/svg" xml:space="preserve" width="97px" height="51px" version="1.1" style="shape-rendering:geometricPrecision; text-rendering:geometricPrecision; image-rendering:optimizeQuality; fill-rule:evenodd; clip-rule:evenodd"
viewBox="0 0 596 315"
 xmlns:xlink="http://www.w3.org/1999/xlink"
 xmlns:xodm="http://www.corel.com/coreldraw/odm/2003">
 <defs>
  <style type="text/css">
   <![CDATA[
    .str0 {stroke:#80949F;stroke-width:3;stroke-miterlimit:22.9256}
    .fil1 {fill:none}
    .fil0 {fill:#6B7B84}
    .fil2 {fill:#80949F;fill-rule:nonzero}
   ]]>
  </style>
 </defs>
 <g id="Слой_x0020_1">
  <metadata id="CorelCorpID_0Corel-Layer"/>
  <path class="fil0 str0" d="M222 2c-4,0 -6,2 -6,6l0 26c0,3 2,6 6,6l223 0c62,0 111,48 111,110 0,2 1,3 3,3l32 0c2,0 4,-1 4,-3 0,-83 -67,-148 -150,-148l-223 0z"/>
  <path class="fil0 str0" d="M41 156c0,-2 -1,-3 -3,-3l-34 0c-1,0 -2,1 -2,3 0,84 62,153 144,157l260 1c3,0 6,-3 6,-6l0 -29c0,-3 -3,-6 -6,-6l-252 0c-62,0 -113,-52 -113,-117z"/>
  <path class="fil0" d="M170 242c17,0 31,-3 45,-10l1 -1 0 -48 -6 7c-10,11 -23,17 -38,17 -28,0 -57,-18 -57,-53 0,-27 20,-55 56,-55 7,0 25,2 39,18l6 6 0 -48 -1 -1c-14,-7 -29,-10 -45,-10 -28,0 -50,7 -68,23 -11,9 -29,30 -29,66 0,27 9,48 30,66 18,16 39,23 67,23z"/>
  <path class="fil1 str0" d="M170 242c17,0 31,-3 45,-10l1 -1 0 -48 -6 7c-10,11 -23,17 -38,17 -28,0 -57,-18 -57,-53 0,-27 20,-55 56,-55 7,0 25,2 39,18l6 6 0 -48 -1 -1c-14,-7 -29,-10 -45,-10 -28,0 -50,7 -68,23 -11,9 -29,30 -29,66 0,27 9,48 30,66 18,16 39,23 67,23"/>
  <path class="fil0" d="M291 104l9 0c7,0 16,1 23,5 3,2 9,8 9,17 0,8 -4,14 -9,18 -7,5 -15,5 -21,5l-11 0 0 -45zm19 77c20,0 36,-6 46,-16 14,-14 16,-32 16,-42 0,-10 -3,-30 -19,-44 -14,-12 -28,-15 -48,-15l-54 0 0 178 41 0 0 -61 18 0z"/>
  <path class="fil2" d="M291 104l0 -1 -1 0 0 1 1 0zm32 5l1 -1 0 0 -1 1zm0 35l1 1 0 0 -1 -1zm-32 5l-1 0 0 1 1 0 0 -1zm65 16l-1 -2 0 0 1 2zm-3 -86l1 -2 0 0 -1 2zm-102 -15l0 -2 -1 0 0 2 1 0zm0 178l-1 0 0 2 1 0 0 -2zm41 0l0 2 2 0 0 -2 -2 0zm0 -61l0 -1 -1 0 0 1 1 0zm-1 -75l9 0 0 -3 -9 0 0 3zm9 0c7,0 16,0 22,4l2 -2c-7,-5 -17,-5 -24,-5l0 3zm22 4c3,2 8,7 8,16l3 0c0,-10 -6,-16 -9,-18l-2 2zm8 16c0,7 -3,13 -8,17l2 2c6,-4 9,-11 9,-19l-3 0zm-8 17c-6,4 -14,4 -20,4l0 3c6,0 15,1 22,-5l-2 -2zm-20 4l-11 0 0 3 11 0 0 -3zm-9 2l0 -45 -3 0 0 45 3 0zm17 34c20,0 36,-6 47,-17l-2 -3c-10,11 -25,17 -45,17l0 3zm47 -17c14,-14 16,-33 16,-43l-3 0c0,10 -2,28 -15,40l2 3zm16 -43c0,-10 -2,-31 -19,-46l-2 3c16,14 18,33 18,43l3 0zm-19 -46c-14,-12 -29,-15 -49,-15l0 3c20,0 34,3 47,15l2 -3zm-49 -15l-54 0 0 3 54 0 0 -3zm-55 2l0 178 3 0 0 -178 -3 0zm1 180l41 0 0 -3 -41 0 0 3zm43 -2l0 -61 -3 0 0 61 3 0zm-2 -59l18 0 0 -3 -18 0 0 3z"/>
  <path class="fil0" d="M494 148c-9,-8 -21,-12 -35,-17 -10,-3 -16,-5 -19,-9 -3,-2 -5,-5 -5,-8 0,-8 6,-17 21,-17 10,0 18,5 25,13l2 4 22 -28 -2 -2c-13,-13 -31,-20 -50,-20 -40,0 -58,26 -58,52 0,13 5,24 14,32 9,8 20,12 30,15l1 1c9,3 18,6 24,11 4,3 5,7 5,12 0,12 -9,20 -23,20 -10,0 -25,-5 -32,-20l-2 -4 -27 25 2 2c8,12 27,32 61,32 36,0 62,-23 62,-57 0,-19 -9,-31 -16,-37z"/>
  <path class="fil1 str0" d="M494 148c-9,-8 -21,-12 -35,-17 -10,-3 -16,-5 -19,-9 -3,-2 -5,-5 -5,-8 0,-8 6,-17 21,-17 10,0 18,5 25,13l2 4 22 -28 -2 -2c-13,-13 -31,-20 -50,-20 -40,0 -58,26 -58,52 0,13 5,24 14,32 9,8 20,12 30,15l1 1c9,3 18,6 24,11 4,3 5,7 5,12 0,12 -9,20 -23,20 -10,0 -25,-5 -32,-20l-2 -4 -27 25 2 2c8,12 27,32 61,32 36,0 62,-23 62,-57 0,-19 -9,-31 -16,-37"/>
 </g>
</svg>
